# xmcd
#
# Track frame offsets:
# 150
# 13147
# 21140
# 45075
# 61619
# 77176
# 88539
# 95134
# 110841
# 132893
# 143787
#
# Disc length: 2199 seconds
#
# Revision: 1
# Processed by: cddbd v1.5.1PL0 Copyright (c) Steve Scherf et al.
# Submitted via: Easy CD Ripper v2.13
#
DISCID=8808950b
DTITLE=John Lee Hooker - Concert At Newport
DYEAR=1964
DGENRE=Blues
TTITLE0=I Can't Quit You Now Blues - John Lee Hooker
TTITLE1=Stop Baby Don't Hold Me That.. - John Lee Hooker
TTITLE2=Tupelo - John Lee Hooker
TTITLE3=Bus Station Blues - John Lee Hooker
TTITLE4=Freight Train Be My Friend - John Lee Hooker
TTITLE5=Boom Boom Boom - John Lee Hooker
TTITLE6=Talk That Talk Baby - John Lee Hooker
TTITLE7=Sometime Baby You Make Me Feel - John Lee Hooker
TTITLE8=You've Got To Walk Yourself - John Lee Hooker
TTITLE9=Let's Make It - John Lee Hooker
TTITLE10=The Mighty Fire - John Lee Hooker
EXTD=John Lee Hooker Live At Newport
EXTT0=
EXTT1=
EXTT2=
EXTT3=
EXTT4=
EXTT5=
EXTT6=
EXTT7=
EXTT8=
EXTT9=
EXTT10=
PLAYORDER=
